Coordinates
version=1
nRows=12
nColumns=19
inDegrees=yes

Units are S.I. units (second, meters, Newtons, ...)
If the header above contains a line with 'inDegrees', this indicates whether rotational values are in degrees (yes) or radians (no).

endheader
time	pelvis_to_ground_rx	pelvis_to_ground_ry	pelvis_to_ground_rz	pelvis_to_ground_tx	pelvis_to_ground_ty	pelvis_to_ground_tz	left_hip_abduction	left_hip_rotation	left_hip_flexion	left_knee_flexion	left_ankle_flexion	left_subtalar_angle	right_hip_abduction	right_hip_rotation	right_hip_flexion	right_knee_flexion	right_ankle_flexion	right_subtalar_angle
      1.99000000	     97.41697377	     21.70482850	     -1.93593465	      0.30534986	     -0.71814639	      0.71786574	    -13.22023758	    -16.43667016	     -4.67396406	    -30.15915295	      8.31483713	     -2.95065251	     -8.27530695	     -8.28591694	     30.61849972	    -25.61162290	     -8.93573467	     -4.91763490
      2.00000000	     97.19135278	     21.67201100	     -1.95585009	      0.31827642	     -0.71880537	      0.71632924	    -12.78362613	    -16.22983825	     -4.97580722	    -31.29264098	      8.12360761	     -2.91751432	     -7.84503227	     -7.98215007	     30.04412458	    -24.57796009	     -8.92493840	     -4.94759164
      2.01000000	     96.85726791	     21.50341020	     -2.00488575	      0.33136261	     -0.71940473	      0.71492934	    -12.19891852	    -15.74914909	     -5.00390915	    -32.71948655	      7.77961315	     -2.86042868	     -7.21714899	     -7.59923479	     29.51439390	    -23.84040240	     -8.76613738	     -5.08996331
      2.02000000	     96.42798172	     21.20512060	     -2.08680069	      0.34456426	     -0.71995328	      0.71369344	    -11.46781438	    -14.94748061	     -4.73541144	    -34.45211039	      7.26632661	     -2.77584789	     -6.43087289	     -7.11760296	     29.01003458	    -23.34430441	     -8.42850029	     -5.34260446
      2.03000000	     95.87959552	     20.80826947	     -2.23241609	      0.35787417	     -0.72049249	      0.71265437	    -10.59179610	    -13.94289349	     -4.16380233	    -36.46488556	      6.09763286	     -2.37043437	     -5.48713480	     -6.51381809	     28.56088863	    -23.06526306	     -7.57686922	     -6.00396112
      2.04000000	     95.20294606	     20.28079663	     -2.36055472	      0.37121196	     -0.72100335	      0.71178651	     -9.56429790	    -12.58988765	     -3.33097855	    -38.78735395	      5.14484877	     -2.17273804	     -4.42154828	     -5.69662271	     28.07327459	    -22.92972565	     -6.85105707	     -6.46371586
      2.05000000	     94.42554554	     19.66883648	     -2.44042157	      0.38456074	     -0.72149184	      0.71105758	     -8.43465200	    -10.94142575	     -2.29993890	    -41.39572433	      3.89644892	     -1.92391153	     -3.22859180	     -4.86829443	     27.54892646	    -22.97096255	     -5.91804422	     -6.98737022
      2.06000000	     93.58300885	     18.91578085	     -2.52278457	      0.39783959	     -0.72194569	      0.71050194	     -7.25947559	     -9.00248399	     -1.06511208	    -44.22352700	      2.58050026	     -1.74613551	     -1.99878952	     -3.83944950	     27.00553853	    -23.10649832	     -4.97508483	     -7.43561095
      2.07000000	     92.58940765	     18.14190602	     -2.56496715	      0.41107349	     -0.72246442	      0.71019103	     -5.98532422	     -6.99852043	      0.31416317	    -47.23802612	      1.05284882	     -1.61453915	     -0.62567265	     -2.78103782	     26.36354994	    -23.19969529	     -3.93674606	     -7.85532626
      2.08000000	     91.55656420	     17.26439900	     -2.62325668	      0.42416027	     -0.72297581	      0.71008985	     -4.73700286	     -4.85337660	      1.84371506	    -50.37502696	     -0.46727040	     -1.62300461	      0.76624679	     -1.63950787	     25.69495040	    -23.27978909	     -2.95521952	     -8.16900541
      2.09000000	     90.48491368	     16.32587625	     -2.69475016	      0.43707539	     -0.72350244	      0.71023330	     -3.53682385	     -2.67665156	      3.49186404	    -53.57901588	     -1.96050611	     -1.78970364	      2.18270404	     -0.49943870	     24.97265617	    -23.27282517	     -2.03392317	     -8.37459010
      2.10000000	     89.40049249	     15.33685595	     -2.78276744	      0.44979290	     -0.72404234	      0.71063706	     -2.42505551	     -0.52197851	      5.23324357	    -56.78825823	     -3.35424780	     -2.14778720	      3.59805623	      0.59715686	     24.18237481	    -23.13307702	     -1.20158860	     -8.44985303
